<?xml version="1.0" encoding="UTF-8" standalone="no"?><!DOCTYPE svg PUBLIC "-//W3C//DTD SVG 1.1//EN" "http://www.w3.org/Graphics/SVG/1.1/DTD/svg11.dtd"><svg width="100%" height="100%" viewBox="0 0 45 45" version="1.1" xmlns="http://www.w3.org/2000/svg" xmlns:xlink="http://www.w3.org/1999/xlink" xml:space="preserve" xmlns:serif="http://www.serif.com/" style="fill-rule:evenodd;clip-rule:evenodd;stroke-linejoin:round;stroke-miterlimit:2;"><clipPath id="_clip1"><path d="M19.852,40.687l-18.632,-32.27l2.37,-4.104l37.724,-0l2.466,4.27l-18.536,32.104l-5.392,0Zm-8.684,-31.64l1.519,2.631l24.503,0l-16.212,28.081l3.73,0l17.732,-30.712l-31.272,-0Zm-7.223,-3.161l-1.557,2.697l17.759,30.759l15.435,-26.736l-2.697,0l-12.53,21.703l-16.41,-28.423Zm38.495,2.233l-1.662,-2.878l-36.134,-0l15.711,27.212l1.627,-2.819l-12.422,-21.515l32.88,-0Zm-29.217,4.487l9.295,16.1l9.295,-16.1l-18.59,0Z"/></clipPath><g clip-path="url(#_clip1)"><rect x="-0" y="0" width="45" height="45" style="fill:url(#_Linear2);"/></g><defs><linearGradient id="_Linear2" x1="0" y1="0" x2="1" y2="0" gradientUnits="userSpaceOnUse" gradientTransform="matrix(45,0,0,45,-3.55271e-15,0)"><stop offset="0" style="stop-color:#64bbe8;stop-opacity:1"/><stop offset="0.8" style="stop-color:#c5aed3;stop-opacity:1"/><stop offset="1" style="stop-color:#c5aed3;stop-opacity:1"/></linearGradient></defs></svg>